<?xml version="1.0" standalone="no"?>
<!DOCTYPE svg PUBLIC "-//W3C//DTD SVG 20010904//EN"
 "http://www.w3.org/TR/2001/REC-SVG-20010904/DTD/svg10.dtd">
<svg version="1.0" xmlns="http://www.w3.org/2000/svg"
 width="2000.000000pt" height="1250.000000pt" viewBox="0 0 2000.000000 1250.000000"
 preserveAspectRatio="xMidYMid meet">

<g transform="translate(0.000000,1250.000000) scale(0.100000,-0.100000)"
fill="#000000" stroke="none">
<path d="M13670 11493 c-335 -37 -607 -226 -861 -598 -74 -108 -196 -376 -243
-530 -89 -295 -115 -456 -123 -760 -6 -253 9 -428 58 -660 69 -324 137 -524
241 -710 63 -111 86 -147 147 -225 205 -266 430 -423 696 -486 53 -12 102 -15
205 -11 150 5 228 26 380 102 183 91 398 309 539 545 95 158 117 204 172 361
99 282 133 457 150 769 25 446 -7 692 -140 1101 -102 313 -240 552 -435 757
-191 200 -444 326 -696 345 -30 2 -71 2 -90 0z"/>
<path d="M6084 11471 c-188 -44 -378 -156 -544 -320 -203 -201 -337 -414 -448
-711 -65 -174 -96 -291 -127 -475 -46 -280 -55 -520 -25 -750 5 -38 16 -126
25 -195 20 -154 58 -329 90 -415 101 -268 126 -321 226 -481 90 -144 197 -265
327 -368 117 -94 216 -149 352 -197 91 -32 101 -33 240 -33 131 -1 154 2 240
28 255 77 448 199 606 383 87 103 127 162 213 320 161 294 237 567 276 992 30
323 15 584 -49 872 -25 115 -105 384 -136 459 -47 113 -145 286 -222 390 -139
186 -356 372 -523 445 -154 68 -368 91 -521 56z"/>
<path d="M14990 3203 c-79 -27 -138 -65 -240 -154 -36 -31 -90 -72 -120 -92
-30 -21 -88 -61 -128 -90 -88 -63 -295 -181 -493 -281 -80 -40 -166 -85 -190
-99 -24 -14 -100 -50 -169 -80 -69 -30 -165 -75 -215 -100 -189 -95 -423 -192
-545 -227 -36 -10 -105 -30 -155 -45 -345 -102 -372 -109 -765 -191 -196 -41
-397 -80 -540 -104 -52 -9 -161 -22 -575 -70 -93 -11 -186 -22 -205 -25 -111
-15 -324 -25 -549 -25 -368 0 -639 20 -1036 75 -60 8 -171 22 -245 30 -118 14
-254 37 -435 75 -27 6 -95 19 -150 30 -322 65 -514 111 -660 158 -33 11 -121
39 -195 62 -203 63 -271 88 -575 215 -22 9 -104 48 -182 86 -79 38 -164 78
-190 88 -27 10 -84 37 -128 59 -44 23 -136 68 -205 101 -132 63 -153 75 -320
178 -118 72 -185 118 -348 241 -135 101 -197 133 -274 140 -109 9 -164 -42
-156 -146 6 -72 33 -128 116 -240 232 -312 618 -669 1008 -930 413 -277 824
-481 1349 -669 116 -41 234 -84 264 -95 101 -36 578 -163 746 -198 99 -20 644
-105 740 -114 319 -33 809 -48 1100 -35 260 12 691 50 884 80 344 52 467 73
613 105 212 47 494 125 647 178 69 25 191 67 269 95 79 28 183 68 230 90 48
21 137 60 197 87 61 27 148 69 195 95 47 25 123 66 170 91 225 120 532 316
730 467 363 277 829 754 906 929 28 62 32 148 9 192 -27 52 -124 85 -185 63z"/>
<path d="M1 165 l-2 -165 120 0 121 0 0 30 c0 20 -5 30 -15 30 -7 0 -19 8 -24
18 -6 10 -11 12 -11 4 0 -10 -5 -10 -20 -2 -11 6 -19 14 -19 18 4 27 -3 42
-21 42 -15 0 -20 7 -20 25 0 16 -6 25 -15 25 -9 0 -15 9 -15 25 0 14 -6 35
-13 47 -12 22 -53 68 -60 68 -2 0 -5 -74 -6 -165z m229 -131 c0 -8 -7 -14 -15
-14 -8 0 -15 9 -15 20 0 13 5 18 15 14 8 -4 15 -12 15 -20z"/>
<path d="M19966 264 c-3 -9 -6 -29 -6 -45 0 -19 -5 -29 -15 -29 -8 0 -15 -7
-15 -15 0 -8 -9 -20 -20 -27 -11 -7 -20 -18 -20 -25 0 -7 -4 -13 -9 -13 -5 0
-12 -11 -15 -25 -4 -14 -11 -25 -16 -25 -6 0 -10 -13 -10 -30 l0 -30 80 0 80
0 0 125 c0 103 -3 125 -15 125 -9 0 -12 6 -9 15 4 8 4 15 1 15 -3 0 -8 -7 -11
-16z m-109 -236 c-3 -8 -6 -5 -6 6 -1 11 2 17 5 13 3 -3 4 -12 1 -19z"/>
<path d="M19808 3 c7 -3 16 -2 19 1 4 3 -2 6 -13 5 -11 0 -14 -3 -6 -6z"/>
</g>
</svg>
